<?xml version="1.0" encoding="UTF-8" ?>
<!DOCTYPE svg PUBLIC "-//W3C//DTD SVG 1.1//EN" "http://www.w3.org/Graphics/SVG/1.1/DTD/svg11.dtd">
<svg width="986pt" height="986pt" viewBox="0 0 986 986" version="1.1" xmlns="http://www.w3.org/2000/svg">
<g id="#9b0000ff">
<path fill="#9b0000" opacity="1.00" d=" M 10.72 26.75 C 19.33 13.55 33.33 3.84 48.91 1.08 C 55.20 -0.14 61.63 0.19 68.00 0.17 C 354.33 0.17 640.66 0.16 926.99 0.17 C 944.03 0.22 960.58 8.66 971.15 21.93 C 979.78 32.40 984.24 45.73 985.31 59.15 C 984.61 76.76 985.19 94.41 985.00 112.04 C 985.00 372.37 985.00 632.69 985.00 893.02 C 985.20 903.50 984.58 914.00 985.33 924.46 C 984.68 940.31 978.68 956.12 967.46 967.50 C 957.29 978.15 942.97 984.53 928.27 985.19 C 878.19 984.75 828.08 985.12 777.99 985.00 C 537.37 985.00 296.75 985.01 56.13 984.99 C 41.88 984.43 28.12 977.94 18.20 967.77 C 6.81 956.26 0.36 940.18 0.25 924.02 C 0.25 636.36 0.25 348.69 0.26 61.02 C 0.40 48.92 4.05 36.86 10.72 26.75 M 62.75 248.09 C 62.75 312.50 62.75 376.91 62.75 441.33 C 144.17 441.38 225.58 441.47 307.00 441.50 C 306.99 377.08 307.01 312.66 306.99 248.24 C 225.58 248.24 144.16 248.13 62.75 248.09 M 369.45 248.39 C 369.56 312.78 369.47 377.18 369.50 441.57 C 451.47 441.61 533.44 441.62 615.40 441.76 C 615.43 377.34 615.41 312.93 615.42 248.51 C 533.43 248.43 451.44 248.28 369.45 248.39 M 677.96 248.49 C 677.87 312.91 677.94 377.33 677.92 441.75 C 759.51 441.87 841.09 441.83 922.67 441.98 C 922.65 377.53 922.67 313.08 922.67 248.64 C 841.10 248.69 759.53 248.61 677.96 248.49 M 62.75 503.84 C 62.74 557.95 62.75 612.05 62.75 666.16 C 144.17 666.25 225.58 666.32 307.00 666.33 C 307.00 612.22 307.00 558.11 307.00 504.00 C 225.58 503.97 144.17 503.87 62.75 503.84 M 369.51 504.08 C 369.49 558.19 369.50 612.30 369.50 666.41 C 451.48 666.43 533.45 666.54 615.42 666.57 C 615.43 612.48 615.39 558.38 615.44 504.29 C 533.46 504.10 451.49 504.11 369.51 504.08 M 677.92 504.25 C 677.91 558.36 677.91 612.47 677.92 666.58 C 759.51 666.79 841.10 666.60 922.69 666.86 C 922.64 612.71 922.67 558.55 922.68 504.40 C 841.09 504.43 759.51 504.33 677.92 504.25 M 62.75 728.67 C 62.74 793.30 62.77 857.93 62.74 922.56 C 144.15 922.63 225.56 922.55 306.98 922.60 C 307.03 858.01 306.99 793.42 307.00 728.84 C 225.58 728.83 144.17 728.74 62.75 728.67 M 369.51 728.92 C 369.49 793.47 369.51 858.02 369.50 922.57 C 451.47 922.59 533.45 922.59 615.42 922.57 C 615.41 858.08 615.43 793.58 615.41 729.08 C 533.44 729.03 451.47 728.92 369.51 728.92 M 677.92 729.09 C 677.94 793.59 677.87 858.10 677.96 922.60 C 759.52 922.57 841.09 922.59 922.66 922.58 C 922.69 858.13 922.63 793.68 922.69 729.23 C 841.10 729.29 759.51 729.20 677.92 729.09 Z" />
</g>
<g id="#4d000080">
<path fill="#4d0000" opacity="0.50" d=" M 985.31 59.15 L 986.00 60.67 L 986.00 926.09 L 985.33 924.46 C 984.58 914.00 985.20 903.50 985.00 893.02 C 985.00 632.69 985.00 372.37 985.00 112.04 C 985.19 94.41 984.61 76.76 985.31 59.15 Z" />
</g>
<g id="#26000040">
<path fill="#260000" opacity="0.25" d=" M 56.13 984.99 C 296.75 985.01 537.37 985.00 777.99 985.00 C 828.08 985.12 878.19 984.75 928.27 985.19 L 929.77 986.00 L 56.07 986.00 L 56.13 984.99 Z" />
</g>
</svg>
