<svg id="图层_1_复制" data-name="图层 1_复制" xmlns="http://www.w3.org/2000/svg" xmlns:xlink="http://www.w3.org/1999/xlink" viewBox="0 0 595.28 595.28"><defs><style>.cls-1{fill:#00000000;stroke:#00000000;stroke-miterlimit:10;}.cls-2{fill:url(#未命名的渐变_14);}</style><radialGradient id="未命名的渐变_14" cx="297.56" cy="296.87" r="296.23" gradientUnits="userSpaceOnUse"><stop offset="0" stop-color="#e60000"/><stop offset="1" stop-color="#9b0000"/></radialGradient></defs><title>未标题-3</title><rect class="cls-1" width="595.28" height="595.28"/><path class="cls-2" d="M262.63,31.12c.78,8.56,3.06,34.67,11.49,34.67h.07l.66,4.95,17.5-2.64,2.31,10.23,74-8.91c-.71-4-.73-6.75,1.32-8.91l1.65-.33c19.53,13.09,5.29,25.93,32.62,25.93a171.54,171.54,0,0,0,17.9-1.17l1,6.6,59.43-2.64.66,7.26,12.55-.33,2,25.76c5.06,7.64,15.06,6.87,17.83,18.49q7.43,60.75,14.86,121.5c4.47,18.59,21.41,28.73,27.73,44.91,9.18,23.47,1.07,60.37,4,85.18,1.41,12.08,3.7,29,.66,41.93l-12.21,4v14.19l-61.09,5.29v6.6l-69.33,4.62,1.32,12.88,9.24-.66,1.65,23.77-47.21,4c.16,14.71,6.47,45.3-3.63,52.17-2.47,1.68-11.83,2.24-22.5,2.24-14.07,0-30.41-1-36.28-1.58l-181.59-2.31-73-.33C65.94,557,59.43,466,57.59,452.09,43.65,346.56,30.83,244.93,30.85,127.2h.47c13.24,0,21-5.4,31.89-7.59,21.49-4.33,48.66-1.55,62.4-13.54,14.14-12.34,20.84-32.84,36.32-43.91,24.53-17.55,66.46-25,100.7-31m0-30a29.81,29.81,0,0,0-5.23.46l5.23,29.54L257.4,1.58c-36.92,6.54-82.87,14.67-112.93,36.18C131.65,46.93,123.54,59.12,117,68.91c-3.85,5.79-7.49,11.26-10.91,14.35-3.6,2-16.07,3.1-23.57,3.76A224.13,224.13,0,0,0,57.29,90.2a112.22,112.22,0,0,0-15.2,4.39c-5.2,1.81-7.64,2.61-10.77,2.61h-.47a30,30,0,0,0-30,30c0,115.07,11.69,212.9,27,328.82.57,4.3,1.92,20.28,3.23,35.74,1.29,15.27,2.75,32.57,4.06,46.11.74,7.6,1.36,13.34,1.91,17.54,1.07,8.23,2.69,20.66,15.27,28.48A29.94,29.94,0,0,0,68,588.41l36.49.17,36.36.16,90.67,1.16L321.09,591c7.74.71,24,1.6,37.91,1.6,21.27,0,31.2-1.88,39.36-7.43,11.53-7.84,17.83-21,18.73-39,.18-3.5.16-7,0-10.55l17.73-1.49a30,30,0,0,0,27.42-32l-.46-6.62,29.65-2a29.86,29.86,0,0,0,18.7-8.21l12.43-1.08,30.54-2.64a30,30,0,0,0,26.71-23.38A30,30,0,0,0,592,440.44c4-17.31,1.82-36.23.19-50l-.26-2.2c-.83-7.14-.37-17.15.11-27.75,1-20.87,2-44.52-5.93-64.89-4.54-11.62-11.7-20.35-17.45-27.38-4-4.84-7.45-9.09-8.73-12.55l-7.14-58.44-7.43-60.75a30.58,30.58,0,0,0-.6-3.31,45.55,45.55,0,0,0-18.12-27l-1-12.55a30,30,0,0,0-23-26.9,30,30,0,0,0-20.08-7.73q-.68,0-1.35,0l-29.72,1.32-11.6.52a30.1,30.1,0,0,0-21-5.66c-4.3.47-8,.77-11.09.91A59.82,59.82,0,0,0,388.3,35.26a29.9,29.9,0,0,0-22.6-4.5l-.75.15-.9.18a30,30,0,0,0-15.89,8.79c-.62.65-1.21,1.32-1.77,2L312.59,46a30,30,0,0,0-19-7.84c-.34-2.51-.69-5.61-1-9.44l0-.27A30,30,0,0,0,262.63,1.12Zm10.64,111.05c.54,6,2.13,24.2,8,24.2h.05c.15,1.15.31,2.3.46,3.45L294,138l1.62,7.14,51.61-6.22c-.49-2.77-.51-4.71.93-6.22l1.15-.23c13.63,9.14,3.69,18.1,22.76,18.1a119.2,119.2,0,0,0,12.49-.82l.69,4.61,41.48-1.84c.15,1.69.31,3.38.46,5.06l8.76-.23,1.38,18c3.53,5.33,10.51,4.79,12.44,12.9Q455,230.6,460.14,273c3.13,13,14.94,20.05,19.36,31.34,6.41,16.38.75,42.13,2.76,59.45,1,8.43,2.58,20.21.47,29.26l-8.53,2.77v9.91l-42.63,3.68V414l-48.39,3.23c.31,3,.61,6,.92,9l6.45-.46q.58,8.3,1.16,16.59l-33,2.77c.11,10.26,4.52,31.61-2.53,36.41-1.72,1.17-8.26,1.56-15.7,1.56-9.82,0-21.23-.68-25.32-1.1l-126.73-1.62-50.93-.23c-1.54-1-6.09-64.5-7.37-74.19-9.73-73.66-18.68-144.58-18.66-226.74h.33c9.23,0,14.64-3.77,22.25-5.3,15-3,34-1.09,43.55-9.45,9.86-8.61,14.54-22.92,25.35-30.65,17.11-12.25,46.38-17.43,70.28-21.66m0-30a29.73,29.73,0,0,0-5.23.46l5.23,29.54L268,82.63c-26.66,4.72-59.85,10.6-82.5,26.8-10.3,7.37-16.47,16.64-21.43,24.1-1.7,2.56-3.59,5.39-5,7.15a116.16,116.16,0,0,1-12.25,1.47,169.21,169.21,0,0,0-18.63,2.36,87.08,87.08,0,0,0-11.8,3.4c-2.89,1-3.89,1.32-4.53,1.32h-.29a30,30,0,0,0-30,30c0,80.87,8.19,149.44,18.92,230.68.37,2.78,1.34,14.33,2.2,24.51.91,10.68,1.93,22.79,2.85,32.3.53,5.4,1,9.5,1.37,12.53.28,2.15.54,3.83.82,5.26,2.26,11.67,8.88,17.93,14,21.14a30,30,0,0,0,15.71,4.52l25.17.12,25.63.11L313.6,512c5.61.49,16.78,1.11,26.92,1.11,14.68,0,24.22-1.07,32.57-6.74,10.4-7.08,16.12-18.43,17-33.74l4.12-.35a30,30,0,0,0,27.4-27.51l12-.8a29.8,29.8,0,0,0,16.08-6l27.13-2.35a30,30,0,0,0,25.76-20,30.07,30.07,0,0,0,9.4-15.69c3.18-13.63,1.52-27.74.3-38l-.18-1.52c-.49-4.26-.18-11.2.13-17.91.71-15.47,1.51-33-4.75-49C503.75,284,498,277,493.83,271.87a65.82,65.82,0,0,1-4.28-5.57L485,229.25l-5.47-44.68a28.51,28.51,0,0,0-.59-3.3,40.53,40.53,0,0,0-12.73-21.39l-.37-4.85a30,30,0,0,0-20.8-26.29,29.91,29.91,0,0,0-18.31-6.24q-.67,0-1.35,0l-26,1.15a29.81,29.81,0,0,0-14.84-4c-1.08,0-2.17.06-3.27.17l-2.06.22A52.28,52.28,0,0,0,366,107.53a30,30,0,0,0-22.59-4.5l-.58.12-.57.11a30.1,30.1,0,0,0-14.95,7.82L311.44,113l-.7.08a30,30,0,0,0-7.6-3.68,30,30,0,0,0-29.87-27.23ZM284,194c.3,3.32,1.18,13.42,4.45,13.42h0c.09.64.17,1.28.26,1.92l6.77-1c.3,1.32.6,2.64.89,4l28.63-3.45c-.28-1.53-.28-2.61.51-3.45l.64-.12c7.56,5.07,2.05,10,12.62,10a66.1,66.1,0,0,0,6.93-.45c.13.85.25,1.7.38,2.56l23-1,.26,2.81,4.86-.12c.25,3.32.51,6.64.76,10,2,3,5.83,2.66,6.9,7.16q2.88,23.51,5.75,47c1.73,7.2,8.29,11.12,10.74,17.38,3.55,9.09.41,23.37,1.53,33,.54,4.68,1.43,11.21.26,16.23l-4.73,1.53v5.5l-23.64,2v2.56L345,363.21l.51,5,3.58-.25c.21,3.06.43,6.13.64,9.2l-18.27,1.53c.06,5.69,2.5,17.53-1.41,20.19-1,.65-4.58.86-8.71.86-5.44,0-11.77-.37-14-.6l-70.29-.9-28.24-.13c-.85-.53-3.37-35.77-4.08-41.14-5.4-40.85-10.36-80.18-10.36-125.74h.19c5.12,0,8.12-2.09,12.34-2.94,8.31-1.68,18.83-.6,24.15-5.24,5.47-4.78,8.06-12.71,14.06-17,9.49-6.79,25.72-9.66,39-12m0-30a29.81,29.81,0,0,0-5.23.46L284,194l-5.23-29.54c-16.12,2.85-36.18,6.41-51.2,17.16-7.07,5.05-11.46,11.2-14.46,15.66l-.4,0a105.14,105.14,0,0,0-11.81,1.53,58.59,58.59,0,0,0-8.29,2.36l-.13,0a30,30,0,0,0-28.19,29.94c0,45.66,4.6,84.13,10.61,129.68.19,1.47.73,7.84,1.16,13,.5,6,1.07,12.72,1.59,18.07.31,3.14.57,5.56.81,7.39.59,4.55,2.17,16.63,14.43,24.26a30,30,0,0,0,15.71,4.52l14.12.07,14,.06,69,.88c3.93.33,10.25.62,15.58.62,8.44,0,17.36-.46,25.58-6.05a33.84,33.84,0,0,0,13.43-18.47,30,30,0,0,0,15.94-14.11,30.19,30.19,0,0,0,10-3.36l11.79-1a30,30,0,0,0,24.43-16.84,30,30,0,0,0,6.93-13.25c2.3-9.84,1.17-19.39.43-25.71l-.1-.82c-.15-1.32,0-5.2.15-7.77.43-9.42,1-21.13-3.54-32.65a55.75,55.75,0,0,0-9.55-15.42l-.67-5.51-4.43-36.19a31,31,0,0,0-.59-3.31,35.56,35.56,0,0,0-7.17-14.55,30.05,30.05,0,0,0-18.38-23.42,29.88,29.88,0,0,0-16.4-4.89l-1.35,0-11.12.5a30,30,0,0,0-8-1.92,44.91,44.91,0,0,0-5.81-4.64,30.07,30.07,0,0,0-22.6-4.5l-.63.13a29.93,29.93,0,0,0-9.37,3.58A29.95,29.95,0,0,0,284,164Zm22.72,157.47H280.2V362q0,8.7-4.1,13.19a14.46,14.46,0,0,1-20.9.05q-4-4.46-4-13V251.86q0-9.57,4.4-13.67t14-4.11h37.21q16.5,0,25.39,2.54a37.85,37.85,0,0,1,15.19,8.11,36.49,36.49,0,0,1,9.71,13.87,48.64,48.64,0,0,1,3.32,18.45q0,21.88-13.47,33.16T306.76,321.49Zm-7-65.63H280.2v43.75h19.53a58.12,58.12,0,0,0,17.14-2.15,19.94,19.94,0,0,0,10.5-7q3.6-4.87,3.61-12.79,0-9.48-5.57-15.43Q319.15,255.87,299.73,255.86Z"/></svg>