<?xml version="1.0" standalone="no"?><!DOCTYPE svg PUBLIC "-//W3C//DTD SVG 1.1//EN" "http://www.w3.org/Graphics/SVG/1.1/DTD/svg11.dtd"><svg t="1651046141279" class="icon" viewBox="0 0 1024 1024" version="1.1" xmlns="http://www.w3.org/2000/svg" p-id="1747" xmlns:xlink="http://www.w3.org/1999/xlink" width="200" height="200"><defs><style type="text/css"></style></defs><path d="M597.333333 938.666667h-106.666666c-12.8 0-21.333333-8.533333-21.333334-21.333334v-106.666666c0-6.4 2.133333-10.666667 6.4-14.933334l320-320c8.533333-8.533333 21.333333-8.533333 29.866667 0l106.666667 106.666667c8.533333 8.533333 8.533333 21.333333 0 29.866667l-320 320c-4.266667 4.266667-8.533333 6.4-14.933334 6.4z m-85.333333-42.666667h76.8l298.666667-298.666667-76.8-76.8-298.666667 298.666667V896zM334.933333 938.666667H106.666667c-12.8 0-21.333333-8.533333-21.333334-21.333334V106.666667c0-12.8 8.533333-21.333333 21.333334-21.333334h682.666666c12.8 0 21.333333 8.533333 21.333334 21.333334v256c0 12.8-8.533333 21.333333-21.333334 21.333333s-21.333333-8.533333-21.333333-21.333333V128H128v768h206.933333c12.8 0 21.333333 8.533333 21.333334 21.333333s-10.666667 21.333333-21.333334 21.333334z" p-id="1748"></path><path d="M516.266667 637.866667L394.666667 320c0-2.133333-2.133333-4.266667-4.266667-4.266667h-55.466667c-2.133333 0-4.266667 2.133333-4.266666 4.266667L209.066667 637.866667v4.266666c0 2.133333 2.133333 2.133333 4.266666 2.133334h51.2c2.133333 0 4.266667-2.133333 4.266667-4.266667l27.733333-78.933333h128l27.733334 78.933333c0 2.133333 2.133333 4.266667 4.266666 4.266667H512c2.133333 0 4.266667 0 4.266667-2.133334 2.133333-2.133333 2.133333-2.133333 0-4.266666zM407.466667 512h-91.733334l46.933334-125.866667 44.8 125.866667zM682.666667 341.333333h-170.666667c-12.8 0-21.333333-8.533333-21.333333-21.333333s8.533333-21.333333 21.333333-21.333333h170.666667c12.8 0 21.333333 8.533333 21.333333 21.333333s-8.533333 21.333333-21.333333 21.333333z" p-id="1749"></path><path d="M597.333333 426.666667c-12.8 0-21.333333-8.533333-21.333333-21.333334v-170.666666c0-12.8 8.533333-21.333333 21.333333-21.333334s21.333333 8.533333 21.333334 21.333334v170.666666c0 12.8-8.533333 21.333333-21.333334 21.333334z" p-id="1750"></path></svg>